Coordinates
version=1
nRows=37
nColumns=38
inDegrees=no

Units are S.I. units (second, meters, Newtons, ...)
If the header above contains a line with 'inDegrees', this indicates whether rotational values are in degrees (yes) or radians (no).

endheader
time	pelvis_tilt	pelvis_list	pelvis_rotation	pelvis_tx	pelvis_ty	pelvis_tz	hip_flexion_r	hip_adduction_r	hip_rotation_r	knee_angle_r	ankle_angle_r	subtalar_angle_r	mtp_angle_r	hip_flexion_l	hip_adduction_l	hip_rotation_l	knee_angle_l	ankle_angle_l	subtalar_angle_l	mtp_angle_l	lumbar_extension	lumbar_bending	lumbar_rotation	arm_flex_r	arm_add_r	arm_rot_r	elbow_flex_r	pro_sup_r	wrist_flex_r	wrist_dev_r	arm_flex_l	arm_add_l	arm_rot_l	elbow_flex_l	pro_sup_l	wrist_flex_l	wrist_dev_l
0.6	-2.75438	1.42766	-1.95308	0.752662	1.27483	1.061	0.221817	-0.0345604	0.0646818	1.18624	-0.14869	0	0	-0.0957566	0.0928203	-0.283483	0.370339	-0.157077	0	0	-0.236054	0.0100408	-0.0910873	-0.333541	-0.260467	0.0906104	0.494574	0.316162	0	0	-0.0407619	-0.726109	0.942371	0.750642	0.68467	0	0
0.61	-2.77991	1.42787	-1.92413	0.751813	1.2839	1.06135	0.236991	-0.03073	0.0597767	1.16176	-0.145037	0	0	-0.110021	0.0902573	-0.279432	0.363207	-0.154762	0	0	-0.237278	0.0144698	-0.0936947	-0.332807	-0.259561	0.0866242	0.497467	0.321322	0	0	-0.0329571	-0.738447	0.919117	0.765008	0.704851	0	0
0.62	-2.8069	1.42795	-1.89384	0.751102	1.29294	1.0616	0.250818	-0.0272178	0.0542405	1.13439	-0.141709	0	0	-0.124273	0.0871919	-0.276028	0.356617	-0.152174	0	0	-0.238953	0.0188816	-0.0959882	-0.331845	-0.258411	0.0828599	0.500494	0.326258	0	0	-0.025443	-0.750454	0.89555	0.779624	0.723479	0	0
0.63	-2.83274	1.42834	-1.86468	0.750461	1.30198	1.06168	0.263991	-0.0244681	0.0477372	1.10432	-0.137489	0	0	-0.137763	0.0839933	-0.273117	0.35025	-0.14948	0	0	-0.240279	0.0231257	-0.0980824	-0.330843	-0.257197	0.0797421	0.503501	0.330957	0	0	-0.0176789	-0.762228	0.873408	0.794282	0.741261	0	0
0.64	-2.85197	1.42977	-1.84209	0.749809	1.311	1.06153	0.277523	-0.0231776	0.0402742	1.07229	-0.131729	0	0	-0.14967	0.081264	-0.270292	0.343719	-0.147111	0	0	-0.239979	0.026629	-0.100079	-0.330072	-0.255844	0.0765332	0.506385	0.335238	0	0	-0.00982457	-0.773444	0.853158	0.808457	0.760723	0	0
0.65	-2.86358	1.43273	-1.82691	0.749093	1.32	1.0611	0.291874	-0.0234179	0.031904	1.03847	-0.125147	0	0	-0.158826	0.0788878	-0.267948	0.338742	-0.144544	0	0	-0.237927	0.0295056	-0.102312	-0.329417	-0.254388	0.0727443	0.509351	0.338865	0	0	-0.00213167	-0.783902	0.833436	0.822306	0.779146	0	0
0.66	-2.87021	1.4367	-1.81684	0.748376	1.32901	1.06047	0.306314	-0.0248039	0.0232389	1.00216	-0.120135	0	0	-0.16623	0.0769628	-0.265557	0.334482	-0.142057	0	0	-0.234342	0.0319264	-0.104062	-0.328982	-0.253082	0.0695657	0.512066	0.341305	0	0	0.00731258	-0.794007	0.818912	0.835348	0.792214	0	0
0.67	-2.87759	1.44076	-1.80594	0.747664	1.33805	1.05974	0.319214	-0.0266026	0.013292	0.96307	-0.115789	0	0	-0.173438	0.0750003	-0.26274	0.330474	-0.138675	0	0	-0.230975	0.034452	-0.106025	-0.328047	-0.251734	0.0663444	0.514378	0.344033	0	0	0.0147849	-0.802797	0.80091	0.848088	0.809468	0	0
0.68	-2.88614	1.44506	-1.79362	0.746934	1.34714	1.05891	0.330605	-0.0286644	0.00155357	0.921088	-0.112929	0	0	-0.180331	0.0728806	-0.25985	0.326808	-0.135096	0	0	-0.227498	0.0372869	-0.108047	-0.327222	-0.250696	0.0636448	0.516975	0.346139	0	0	0.0225544	-0.810661	0.784184	0.860064	0.826755	0	0
0.69	-2.89576	1.44946	-1.78009	0.746187	1.35631	1.05802	0.340622	-0.0309098	-0.0120826	0.876579	-0.110847	0	0	-0.187124	0.0706949	-0.256845	0.323388	-0.131387	0	0	-0.22392	0.0403714	-0.110185	-0.326371	-0.249919	0.0612213	0.519599	0.347817	0	0	0.0304923	-0.817719	0.76874	0.871367	0.843464	0	0
0.7	-2.90529	1.45373	-1.76655	0.745452	1.36554	1.05708	0.349219	-0.0332932	-0.0276024	0.829986	-0.109168	0	0	-0.194083	0.0685518	-0.253772	0.319965	-0.127767	0	0	-0.220389	0.0434305	-0.112224	-0.325437	-0.249268	0.0589142	0.521977	0.349139	0	0	0.0385406	-0.823684	0.754238	0.881665	0.859074	0	0
0.71	-2.91387	1.45839	-1.75392	0.744748	1.37487	1.05604	0.357231	-0.0355657	-0.044834	0.782214	-0.107737	0	0	-0.200497	0.0663052	-0.250598	0.316994	-0.12398	0	0	-0.216213	0.0463964	-0.113927	-0.324728	-0.248793	0.0569356	0.524177	0.350544	0	0	0.046798	-0.828695	0.741163	0.891003	0.874771	0	0
0.72	-2.92037	1.46341	-1.7435	0.744091	1.38428	1.05487	0.364837	-0.0376367	-0.0635584	0.733808	-0.107312	0	0	-0.206293	0.064267	-0.247802	0.314147	-0.119946	0	0	-0.211716	0.0491484	-0.115362	-0.323974	-0.248517	0.0551351	0.526239	0.351886	0	0	0.0535231	-0.832352	0.725526	0.899855	0.893167	0	0
0.73	-2.92643	1.46832	-1.73297	0.743412	1.3937	1.05363	0.371358	-0.0396174	-0.0845826	0.685257	-0.107947	0	0	-0.211968	0.0621034	-0.244062	0.311952	-0.116161	0	0	-0.207308	0.0519405	-0.116783	-0.323442	-0.248304	0.0530912	0.528616	0.351573	0	0	0.0619904	-0.835961	0.714847	0.908389	0.907584	0	0
0.74	-2.93245	1.47295	-1.72231	0.742749	1.40319	1.05231	0.376652	-0.041441	-0.107061	0.637185	-0.110067	0	0	-0.217813	0.0598853	-0.239381	0.310358	-0.112261	0	0	-0.203263	0.0546852	-0.118338	-0.322989	-0.248169	0.0506578	0.531302	0.350671	0	0	0.0696982	-0.838999	0.703966	0.916956	0.922474	0	0
0.75	-2.93992	1.4772	-1.71039	0.742168	1.41283	1.05093	0.380487	-0.0428883	-0.13008	0.590287	-0.113033	0	0	-0.22443	0.057606	-0.2339	0.30853	-0.108123	0	0	-0.199699	0.0573404	-0.120175	-0.322304	-0.248284	0.0487672	0.533856	0.350764	0	0	0.0741697	-0.841184	0.688573	0.926206	0.939759	0	0
0.76	-2.94775	1.48154	-1.69817	0.741665	1.42258	1.04944	0.383603	-0.0440215	-0.152712	0.545646	-0.114245	0	0	-0.230851	0.0550566	-0.228987	0.307195	-0.104033	0	0	-0.195698	0.0598069	-0.122091	-0.321553	-0.248566	0.0478251	0.535916	0.351684	0	0	0.0785915	-0.843622	0.676159	0.935514	0.953945	0	0
0.77	-2.95931	1.48544	-1.6819	0.741226	1.43238	1.04791	0.385248	-0.0446139	-0.17386	0.503737	-0.113487	0	0	-0.237613	0.0518479	-0.223835	0.306398	-0.0996952	0	0	-0.192358	0.0624605	-0.124613	-0.320194	-0.248731	0.0469363	0.537461	0.352716	0	0	0.0813884	-0.845527	0.662285	0.94495	0.968688	0	0
0.78	-2.97581	1.48917	-1.66076	0.740899	1.44227	1.04633	0.385949	-0.0442544	-0.190432	0.466048	-0.11014	0	0	-0.24437	0.0479345	-0.219595	0.306353	-0.0954599	0	0	-0.189182	0.0652331	-0.127662	-0.318162	-0.248851	0.046491	0.538301	0.353822	0	0	0.081931	-0.847203	0.646905	0.954758	0.982994	0	0
0.79	-2.99879	1.49236	-1.63315	0.740663	1.45225	1.04479	0.385252	-0.0427564	-0.201662	0.432414	-0.105445	0	0	-0.251617	0.0433292	-0.216282	0.306792	-0.0915576	0	0	-0.186604	0.068268	-0.131271	-0.315272	-0.248923	0.0466826	0.538164	0.355076	0	0	0.0801083	-0.848312	0.629704	0.964753	0.995838	0	0
0.8	-3.02704	1.49424	-1.59965	0.740413	1.4623	1.04339	0.382813	-0.0406121	-0.208698	0.404003	-0.10123	0	0	-0.260002	0.0382029	-0.21349	0.307742	-0.0880591	0	0	-0.185603	0.0716464	-0.135654	-0.311947	-0.24913	0.0471758	0.537772	0.356529	0	0	0.0767436	-0.848768	0.611291	0.975114	1.00755	0	0
0.81	-3.05488	1.49509	-1.56626	0.740157	1.47245	1.0421	0.379636	-0.0384439	-0.21235	0.382934	-0.0984281	0	0	-0.269243	0.0329343	-0.211766	0.309332	-0.0850872	0	0	-0.185709	0.0751107	-0.140433	-0.308637	-0.249437	0.047632	0.537524	0.357662	0	0	0.0725616	-0.848461	0.59292	0.985002	1.01904	0	0
0.82	-3.07493	1.49592	-1.54065	0.739896	1.48267	1.04084	0.377761	-0.0372037	-0.213901	0.371758	-0.0964309	0	0	-0.278063	0.0280735	-0.210754	0.311791	-0.082943	0	0	-0.185608	0.0781711	-0.144658	-0.306031	-0.249791	0.0478445	0.537504	0.357995	0	0	0.0693837	-0.847533	0.577962	0.993657	1.02904	0	0
0.83	-3.08809	1.49681	-1.52198	0.739606	1.49297	1.03959	0.376889	-0.0368913	-0.214289	0.369644	-0.094683	0	0	-0.286242	0.0238694	-0.210794	0.31491	-0.0815959	0	0	-0.185222	0.0808762	-0.148535	-0.304081	-0.250208	0.0474892	0.537785	0.357475	0	0	0.0659809	-0.845933	0.564604	1.00178	1.03752	0	0
0.84	-3.09702	1.49715	-1.50746	0.739282	1.50339	1.03839	0.376338	-0.0374371	-0.21539	0.37648	-0.0929084	0	0	-0.294317	0.0199241	-0.212118	0.319165	-0.0804096	0	0	-0.18628	0.0834094	-0.155359	-0.300866	-0.251177	0.0481986	0.538754	0.356915	0	0	0.0507719	-0.84126	0.531775	1.01279	1.0559	0	0
0.85	-3.10113	1.49793	-1.49776	0.738986	1.514	1.03715	0.376832	-0.0386859	-0.216616	0.391224	-0.09336	0	0	-0.301402	0.0163259	-0.213449	0.324612	-0.0798953	0	0	-0.186103	0.0857367	-0.159934	-0.300587	-0.251992	0.0478266	0.541245	0.355611	0	0	0.0415364	-0.837185	0.512093	1.02184	1.0673	0	0
0.86	-3.1077	1.49848	-1.48594	0.738759	1.52485	1.03592	0.375973	-0.0393244	-0.21604	0.409689	-0.0952936	0	0	-0.308227	0.0123402	-0.214968	0.331483	-0.0794095	0	0	-0.18646	0.0884391	-0.164994	-0.300872	-0.253276	0.0477062	0.544955	0.353541	0	0	0.0279292	-0.831814	0.487139	1.03161	1.0825	0	0
0.87	-3.11808	1.49896	-1.47049	0.738612	1.53596	1.0347	0.373338	-0.0387994	-0.21361	0.43043	-0.0984152	0	0	-0.314436	0.00769708	-0.216702	0.340034	-0.0794992	0	0	-0.186026	0.0915116	-0.168248	-0.302989	-0.254245	0.0463343	0.548662	0.352	0	0	0.0187777	-0.82771	0.473997	1.03965	1.09066	0	0
0.88	-3.13802	1.49905	-1.44557	0.738514	1.54731	1.0336	0.369202	-0.0371614	-0.211821	0.452029	-0.104037	0	0	-0.320086	0.00172655	-0.219248	0.350931	-0.080162	0	0	-0.185816	0.0956193	-0.172157	-0.305477	-0.255551	0.04486	0.552991	0.351136	0	0	0.00577052	-0.821732	0.456298	1.04754	1.10161	0	0
0.89	3.10921	1.49878	-1.40487	0.738406	1.55878	1.03279	0.365497	-0.035294	-0.212789	0.471492	-0.114255	0	0	-0.324818	-0.00573679	-0.221543	0.364072	-0.0818087	0	0	-0.18581	0.101333	-0.177208	-0.306178	-0.257458	0.0448054	0.555314	0.351866	0	0	-0.0114986	-0.812802	0.432647	1.05435	1.11681	0	0
0.9	3.05636	1.49751	-1.34814	0.738356	1.57029	1.0325	0.362355	-0.0333861	-0.215606	0.484671	-0.122388	0	0	-0.329187	-0.014473	-0.222691	0.378959	-0.0845195	0	0	-0.186039	0.108901	-0.17982	-0.305952	-0.259244	0.0442934	0.554522	0.352231	0	0	-0.0224564	-0.803911	0.422069	1.05691	1.12415	0	0
0.91	2.9891	1.49526	-1.27858	0.738374	1.58189	1.0327	0.358403	-0.0293547	-0.218275	0.492033	-0.130704	0	0	-0.332598	-0.0247321	-0.225788	0.396842	-0.0894124	0	0	-0.187134	0.118329	-0.181692	-0.304095	-0.261501	0.0437824	0.552188	0.352234	0	0	-0.0354278	-0.792279	0.409044	1.05734	1.1319	0	0
0.92	2.91581	1.49221	-1.20531	0.738521	1.59359	1.03331	0.352907	-0.0226602	-0.219277	0.497584	-0.145213	0	0	-0.334957	-0.0357031	-0.231443	0.417813	-0.0983093	0	0	-0.189158	0.12871	-0.18316	-0.30039	-0.264632	0.0452514	0.548657	0.352432	0	0	-0.0540783	-0.776531	0.38608	1.05695	1.14516	0	0
0.93	2.85715	1.48951	-1.14892	0.738893	1.60538	1.03412	0.347605	-0.0160467	-0.218774	0.507132	-0.15934	0	0	-0.336166	-0.0446345	-0.235907	0.440456	-0.106227	0	0	-0.190326	0.137581	-0.180894	-0.29802	-0.267453	0.0463511	0.544772	0.351837	0	0	-0.0676857	-0.762281	0.375081	1.05398	1.15052	0	0
0.94	2.80977	1.48809	-1.10607	0.739519	1.61737	1.03498	0.344429	-0.0103034	-0.215847	0.520883	-0.174658	0	0	-0.334475	-0.0519621	-0.241882	0.467249	-0.118092	0	0	-0.190048	0.14454	-0.177691	-0.296055	-0.270541	0.0488525	0.541166	0.349853	0	0	-0.0848929	-0.74614	0.35979	1.05026	1.15671	0	0
0.95	2.78657	1.48709	-1.08824	0.740354	1.62945	1.03594	0.341204	-0.00595442	-0.210501	0.535162	-0.17842	0	0	-0.33133	-0.0567817	-0.245929	0.495996	-0.129237	0	0	-0.189797	0.148783	-0.173265	-0.295279	-0.272608	0.050219	0.538103	0.347358	0	0	-0.100218	-0.731996	0.351036	1.04593	1.15839	0	0
0.96	2.77543	1.48673	-1.08268	0.741329	1.64162	1.03695	0.337445	-0.00172978	-0.202165	0.548551	-0.17905	0	0	-0.325246	-0.0612106	-0.251134	0.529761	-0.144991	0	0	-0.188911	0.15143	-0.169263	-0.295088	-0.274472	0.0524739	0.535603	0.34341	0	0	-0.116183	-0.718036	0.343644	1.04052	1.15818	0	0
